<svg id="svg" xmlns="http://www.w3.org/2000/svg" xmlns:xlink="http://www.w3.org/1999/xlink" width="400" height="400" viewBox="0, 0, 400,400"><g id="svgg"><path id="path0" d="M167.893 76.500 C 167.746 76.879,168.412 76.968,170.650 76.868 C 172.575 76.783,173.600 76.887,173.600 77.168 C 173.600 77.406,173.330 77.600,173.000 77.600 C 172.469 77.600,172.400 85.471,172.400 146.043 L 172.400 214.487 173.400 214.236 C 174.138 214.051,174.400 214.144,174.400 214.592 C 174.400 215.096,173.734 215.195,170.500 215.173 C 167.396 215.151,166.784 215.057,167.500 214.712 L 168.400 214.278 168.394 146.439 C 168.391 109.127,168.235 78.841,168.049 79.135 C 167.862 79.429,166.970 79.708,166.066 79.755 C 164.405 79.840,155.292 87.979,155.849 88.880 C 155.958 89.056,155.857 89.200,155.624 89.200 C 155.391 89.200,155.200 89.001,155.200 88.758 C 155.200 88.515,150.235 93.285,144.166 99.358 C 138.097 105.431,132.971 110.400,132.773 110.400 C 132.063 110.400,129.546 113.188,129.834 113.655 C 130.020 113.956,129.950 114.016,129.639 113.824 C 129.326 113.631,125.680 117.004,119.328 123.363 C 113.924 128.773,109.322 133.200,109.102 133.200 C 108.493 133.200,86.401 155.436,86.394 156.056 C 86.389 156.500,86.322 156.497,86.031 156.037 C 85.761 155.610,82.959 158.192,74.421 166.737 C 68.231 172.932,62.949 178.004,62.683 178.009 C 62.417 178.014,57.180 183.054,51.045 189.209 C 44.909 195.364,39.723 200.400,39.519 200.400 C 39.315 200.400,37.765 201.779,36.074 203.464 C 34.383 205.149,33.335 206.407,33.745 206.259 C 35.001 205.806,34.210 208.598,32.679 210.026 C 31.975 210.683,30.710 211.890,29.867 212.710 L 28.335 214.200 29.467 214.404 C 30.957 214.672,30.770 215.336,29.116 215.647 C 28.392 215.783,60.682 215.918,100.871 215.947 C 178.604 216.003,175.200 216.078,175.200 214.325 C 175.200 214.095,175.539 213.995,175.952 214.103 C 176.523 214.253,179.453 211.551,188.050 202.950 C 194.290 196.708,199.530 191.600,199.694 191.600 C 200.250 191.600,201.975 189.882,201.763 189.540 C 201.647 189.353,201.788 189.196,202.076 189.191 C 202.364 189.187,206.736 185.031,211.791 179.957 C 216.846 174.883,221.306 170.558,221.702 170.345 C 222.098 170.133,222.300 169.761,222.149 169.518 C 221.980 169.244,222.061 169.190,222.363 169.377 C 222.680 169.573,226.771 165.755,234.074 158.446 C 240.248 152.268,245.430 147.295,245.591 147.395 C 245.998 147.646,247.670 145.803,247.337 145.470 C 247.188 145.322,247.309 145.200,247.604 145.200 C 248.351 145.200,261.593 131.913,261.308 131.451 C 261.180 131.245,261.249 131.183,261.460 131.313 C 261.671 131.444,263.409 129.948,265.322 127.990 C 267.235 126.032,268.800 124.628,268.800 124.869 C 268.800 125.111,273.700 120.409,279.690 114.420 C 285.679 108.432,290.904 103.358,291.301 103.146 C 291.698 102.934,291.924 102.601,291.805 102.408 C 291.685 102.214,291.798 101.925,292.055 101.766 C 292.348 101.585,292.416 101.650,292.238 101.938 C 291.356 103.366,293.277 101.645,299.838 95.130 C 303.865 91.131,307.051 87.683,306.918 87.468 C 306.785 87.253,306.843 87.180,307.048 87.306 C 307.252 87.432,309.215 85.734,311.409 83.534 C 314.274 80.661,314.987 79.773,313.935 80.385 C 312.124 81.439,311.584 80.852,313.034 79.403 C 313.745 78.691,314.421 78.393,315.134 78.477 C 315.904 78.567,316.225 78.398,316.333 77.843 C 316.450 77.245,316.304 77.132,315.641 77.305 C 315.179 77.426,314.683 77.334,314.539 77.101 C 314.390 76.861,314.465 76.793,314.711 76.945 C 314.949 77.092,315.246 77.049,315.370 76.848 C 315.494 76.648,315.312 76.375,314.965 76.242 C 313.600 75.718,168.096 75.973,167.893 76.500 M169.600 146.000 C 169.600 206.533,169.669 214.400,170.200 214.400 C 170.731 214.400,170.800 206.533,170.800 146.000 C 170.800 85.467,170.731 77.600,170.200 77.600 C 169.669 77.600,169.600 85.467,169.600 146.000 M232.800 184.200 C 232.800 184.530,232.530 184.800,232.200 184.800 C 231.264 184.800,231.290 321.395,232.225 321.754 C 232.569 321.886,232.739 322.176,232.602 322.397 C 232.456 322.632,232.836 322.800,233.512 322.800 C 234.659 322.800,237.550 320.253,237.290 319.471 C 237.230 319.289,237.334 319.236,237.522 319.352 C 238.003 319.649,250.475 307.015,250.104 306.606 C 249.937 306.422,249.993 306.381,250.228 306.515 C 250.464 306.649,252.428 304.980,254.594 302.806 C 256.760 300.632,258.952 298.748,259.466 298.619 C 259.980 298.490,260.400 298.222,260.400 298.023 C 260.400 297.566,272.403 285.600,272.861 285.600 C 273.048 285.600,273.200 285.436,273.200 285.235 C 273.200 284.787,277.579 280.400,278.026 280.400 C 278.202 280.400,278.457 280.049,278.594 279.620 C 278.730 279.192,279.192 278.730,279.620 278.594 C 280.049 278.457,280.400 278.110,280.400 277.822 C 280.400 277.533,280.911 277.085,281.536 276.827 C 282.160 276.568,285.750 273.261,289.513 269.478 C 300.684 258.248,305.600 253.455,305.600 253.793 C 305.600 253.968,310.669 249.047,316.864 242.856 C 323.060 236.665,328.325 231.596,328.564 231.591 C 328.804 231.586,334.026 226.546,340.170 220.391 C 346.313 214.236,351.533 209.198,351.770 209.195 C 353.179 209.178,375.726 185.594,375.276 184.607 C 374.638 183.207,368.235 183.029,367.800 184.400 C 367.603 185.021,367.195 185.200,365.973 185.200 C 364.667 185.200,364.400 185.064,364.400 184.400 C 364.400 183.603,364.133 183.600,298.600 183.600 C 240.378 183.600,232.800 183.669,232.800 184.200 M229.199 184.900 C 228.902 233.464,229.285 321.421,229.793 321.529 C 230.334 321.645,230.400 314.191,230.400 253.229 C 230.400 192.670,230.331 184.800,229.800 184.800 C 229.470 184.800,229.200 184.845,229.199 184.900 M224.328 187.182 C 223.299 188.292,222.228 189.200,221.949 189.200 C 221.669 189.200,216.966 193.700,211.497 199.200 C 206.029 204.700,201.358 209.200,201.118 209.200 C 200.879 209.200,195.469 214.420,189.098 220.800 C 182.726 227.180,177.346 232.400,177.142 232.400 C 176.939 232.400,171.546 237.620,165.159 244.000 C 158.771 250.380,153.353 255.600,153.117 255.600 C 152.881 255.600,147.644 260.640,141.480 266.800 C 135.315 272.960,130.100 278.000,129.891 278.000 C 129.682 278.000,124.395 283.120,118.143 289.377 C 111.891 295.634,106.466 300.856,106.088 300.981 C 103.940 301.691,85.868 320.805,86.401 321.802 L 86.935 322.800 156.668 322.800 C 218.385 322.800,226.400 322.731,226.400 322.200 C 226.400 321.866,226.756 321.600,227.201 321.600 C 228.000 321.600,228.002 321.400,227.901 253.900 C 227.807 190.888,227.754 186.208,227.131 186.310 C 226.764 186.371,226.404 186.138,226.331 185.793 C 226.239 185.350,225.648 185.759,224.328 187.182 M40.400 202.200 C 39.885 202.748,39.386 203.119,39.292 203.025 C 39.076 202.809,40.939 200.853,41.168 201.055 C 41.261 201.137,40.915 201.652,40.400 202.200 M175.476 212.981 C 174.564 213.893,174.154 213.735,175.002 212.798 C 175.402 212.356,175.811 212.078,175.912 212.179 C 176.013 212.279,175.817 212.640,175.476 212.981 " stroke="none" fill="#fc5c5c" fill-rule="evenodd"></path><path id="path1" d="M167.275 77.616 C 166.794 78.064,166.400 78.537,166.400 78.666 C 166.400 79.146,168.931 78.373,169.383 77.755 C 171.160 75.325,171.095 72.940,171.252 146.000 L 171.400 214.600 169.696 214.637 C 168.759 214.657,167.874 214.792,167.730 214.937 C 167.585 215.082,168.892 215.175,170.633 215.146 C 172.375 215.116,173.395 215.013,172.900 214.918 L 172.000 214.744 172.000 146.000 L 172.000 77.256 172.900 77.082 C 173.395 76.987,172.529 76.884,170.975 76.854 C 168.638 76.809,168.000 76.941,167.275 77.616 M228.392 183.928 C 228.057 184.078,227.787 184.410,227.792 184.667 C 227.808 185.574,228.214 185.530,228.667 184.571 C 228.919 184.037,229.097 183.613,229.062 183.628 C 229.028 183.644,228.726 183.779,228.392 183.928 M366.000 184.800 L 364.600 185.095 365.876 185.147 C 366.578 185.176,367.264 185.020,367.400 184.800 C 367.536 184.580,367.592 184.424,367.524 184.453 C 367.456 184.482,366.770 184.638,366.000 184.800 " stroke="none" fill="#fc7c7c" fill-rule="evenodd"></path><path id="path2" d="M169.103 77.700 C 168.676 78.142,168.668 214.672,169.095 214.508 C 169.591 214.318,169.898 77.600,169.402 77.600 C 169.291 77.600,169.157 77.645,169.103 77.700 M228.517 184.796 C 228.403 185.233,228.147 185.491,227.948 185.368 C 227.749 185.245,227.714 184.932,227.870 184.672 C 228.032 184.403,227.862 184.436,227.477 184.749 C 227.105 185.051,226.800 185.396,226.800 185.516 C 226.800 185.635,226.918 185.615,227.063 185.470 C 228.148 184.385,228.197 187.629,228.098 253.920 L 227.995 321.908 227.098 322.231 C 226.459 322.460,227.050 322.594,229.148 322.695 C 232.532 322.858,232.763 322.763,231.664 321.664 C 231.019 321.019,230.819 320.973,230.643 321.431 C 230.523 321.744,230.059 322.000,229.613 322.000 L 228.800 322.000 228.800 253.387 C 228.800 181.467,228.765 183.032,230.317 184.584 C 230.473 184.739,230.691 215.407,230.802 252.733 L 231.005 320.600 231.102 252.720 C 231.195 188.553,231.238 184.817,231.900 184.432 C 232.446 184.114,232.173 184.022,230.663 184.012 C 229.059 184.002,228.689 184.137,228.517 184.796 M171.381 199.600 C 171.381 207.850,171.434 211.225,171.499 207.100 C 171.564 202.975,171.564 196.225,171.499 192.100 C 171.434 187.975,171.381 191.350,171.381 199.600 M28.101 214.000 C 28.190 214.330,28.699 214.633,29.231 214.674 C 29.995 214.732,30.031 214.701,29.400 214.528 C 28.960 214.407,28.451 214.103,28.270 213.854 C 28.051 213.554,27.994 213.604,28.101 214.000 " stroke="none" fill="#fc7474" fill-rule="evenodd"></path><path id="path3" d="M364.400 183.824 C 364.400 185.268,367.322 185.152,367.528 183.700 C 367.642 182.893,367.487 182.800,366.028 182.800 C 364.548 182.800,364.400 182.893,364.400 183.824 M31.765 207.936 C 30.869 208.780,30.020 209.770,29.880 210.136 C 29.740 210.501,29.349 210.800,29.013 210.800 C 28.676 210.800,28.400 210.999,28.400 211.242 C 28.400 211.486,27.961 212.030,27.425 212.452 C 25.659 213.841,26.614 215.633,28.909 215.235 L 30.200 215.011 28.900 214.880 C 26.852 214.674,27.274 214.014,32.309 209.561 C 33.349 208.641,34.294 206.400,33.642 206.400 C 33.507 206.400,32.662 207.091,31.765 207.936 " stroke="none" fill="#fcb8b8" fill-rule="evenodd"></path><path id="path4" d="M170.100 77.452 C 171.189 77.773,171.189 214.240,170.100 214.524 C 169.574 214.662,169.624 214.719,170.301 214.754 L 171.202 214.800 171.101 146.105 C 171.000 77.742,170.996 77.411,170.200 77.328 C 169.578 77.264,169.556 77.292,170.100 77.452 M172.267 77.467 C 171.665 78.068,171.965 214.800,172.567 214.800 C 172.879 214.800,173.419 214.909,173.767 215.043 C 174.184 215.203,174.400 215.064,174.400 214.635 C 174.400 214.141,174.160 214.045,173.400 214.236 L 172.400 214.487 172.400 146.073 C 172.400 81.253,172.437 77.649,173.100 77.476 C 173.661 77.329,173.674 77.284,173.167 77.246 C 172.818 77.221,172.413 77.320,172.267 77.467 M315.600 77.933 C 315.600 78.190,315.248 78.400,314.818 78.400 C 314.388 78.400,313.575 78.862,313.011 79.426 C 311.856 80.580,311.999 81.443,313.235 80.781 C 313.668 80.549,313.917 80.189,313.788 79.980 C 313.549 79.593,314.118 79.437,315.200 79.591 C 315.530 79.638,315.667 79.541,315.503 79.375 C 315.340 79.209,315.411 78.828,315.660 78.527 C 315.910 78.227,315.998 77.865,315.857 77.724 C 315.716 77.582,315.600 77.677,315.600 77.933 M168.302 146.275 C 168.384 200.379,168.303 214.222,167.902 214.505 C 167.528 214.770,167.553 214.819,168.000 214.697 C 168.654 214.519,169.154 78.400,168.501 78.400 C 168.336 78.400,168.246 108.944,168.302 146.275 M165.800 79.600 C 164.781 80.038,165.832 80.038,167.200 79.600 C 168.004 79.343,168.043 79.277,167.400 79.268 C 166.960 79.262,166.240 79.411,165.800 79.600 M230.800 183.960 C 232.060 184.128,232.390 184.286,231.900 184.487 C 231.238 184.759,231.195 188.438,231.102 252.687 L 231.003 320.600 230.800 252.800 L 230.597 185.000 230.498 253.347 C 230.400 321.472,230.397 321.693,229.600 321.484 C 229.160 321.369,228.800 321.438,228.800 321.637 C 228.800 322.285,230.349 322.020,230.768 321.300 C 230.992 320.915,231.181 320.819,231.188 321.086 C 231.195 321.353,231.605 321.768,232.100 322.008 C 232.912 322.402,232.932 322.389,232.300 321.878 C 231.299 321.068,231.200 184.800,232.200 184.800 C 232.530 184.800,232.800 184.530,232.800 184.200 C 232.800 183.742,232.349 183.614,230.900 183.660 L 229.000 183.720 230.800 183.960 M227.056 185.478 C 226.619 185.914,226.773 186.267,227.400 186.267 C 227.730 186.267,228.000 186.127,228.000 185.957 C 228.000 185.506,227.355 185.179,227.056 185.478 M228.995 253.000 C 228.995 290.180,229.042 305.331,229.100 286.668 C 229.157 268.006,229.157 237.586,229.100 219.068 C 229.042 200.551,228.995 215.820,228.995 253.000 M40.060 201.880 C 39.543 202.415,39.197 202.930,39.292 203.025 C 39.386 203.119,39.885 202.748,40.400 202.200 C 40.915 201.652,41.261 201.137,41.168 201.055 C 41.076 200.974,40.577 201.345,40.060 201.880 M175.002 212.798 C 174.603 213.239,174.407 213.600,174.567 213.600 C 174.988 213.600,176.128 212.395,175.912 212.179 C 175.811 212.078,175.402 212.356,175.002 212.798 " stroke="none" fill="#fc6c6c" fill-rule="evenodd"></path></g></svg>